# xmcd
#
# Track frame offsets:
#	182
#	11737
#	29287
#	49205
#	60425
#	70160
#	81560
#	100787
#	114995
#	131652
#	142247
#	157735
#	171017
#	182635
#
# Disc length: 2636 seconds
#
# Revision: 1
# Processed by: cddbd v1.5.2PL0 Copyright (c) Steve Scherf et al.
# Submitted via: EasyCDDAExtractor 7.0.3.1
#
DISCID=ba0a4a0e
DTITLE=Various Artist - Louisiana Christmas
DYEAR=1993
DGENRE=Cajun
TTITLE0=Kane Glaze - Hope You Have A Merry Christmas
TTITLE1=Bayou Boudreaux - Boudreaux's Christmas
TTITLE2=Michael Doucet and Friends - Please Come Home For Christmas
TTITLE3=Terry Huval and Jambalaya Cajun Band - Jingle Bell Rock
TTITLE4=Johnny Koonse - Old Fashioned Christmas
TTITLE5=Reggie Matte and Jambalaya Cajun Band - Jingle Bells
TTITLE6=Clifton Chenier - It's Christmas Time
TTITLE7=Gary Walker and Boogie Kings - Santa's Got A Brand New Bag
TTITLE8=Rockin Sidney - Party This Christmas
TTITLE9=Monty Brown - Cajun Christmas
TTITLE10=Nancy Tabb Marcantel - The Christmas Song
TTITLE11=Justin Wilson - I'll Be Home For Christmas
TTITLE12=Bayou Boudreaux - Christmas In Cajunland
TTITLE13=Michael Doucet and Friends - Auld Lang Zyne
EXTD=
EXTT0=
EXTT1=
EXTT2=
EXTT3=
EXTT4=
EXTT5=
EXTT6=
EXTT7=
EXTT8=
EXTT9=
EXTT10=
EXTT11=
EXTT12=
EXTT13=
PLAYORDER=
